<?xml version="1.0" standalone="no"?>
<!DOCTYPE svg PUBLIC "-//W3C//DTD SVG 20010904//EN"
 "http://www.w3.org/TR/2001/REC-SVG-20010904/DTD/svg10.dtd">
<svg version="1.0" xmlns="http://www.w3.org/2000/svg"
 width="70.000000pt" height="70.000000pt" viewBox="0 0 70.000000 70.000000"
 preserveAspectRatio="xMidYMid meet">
<metadata>
Created by potrace 1.11, written by Peter Selinger 2001-2013
</metadata>
<g transform="translate(0.000000,70.000000) scale(0.100000,-0.100000)"
fill="#000000" stroke="none">
<path d="M307 684 c2 -7 -5 -15 -16 -19 -12 -3 -19 -10 -16 -14 2 -4 -7 -14
-20 -21 -13 -7 -22 -16 -20 -20 3 -5 -1 -10 -9 -13 -16 -7 -28 -47 -13 -47 6
0 7 -3 4 -6 -4 -4 5 -17 19 -29 15 -13 23 -28 20 -34 -4 -6 -2 -10 4 -9 7 2
14 -5 15 -14 2 -10 -1 -18 -6 -18 -6 0 -7 -5 -4 -10 7 -11 -23 -9 -42 3 -7 5
-13 5 -13 0 0 -4 -9 6 -19 24 -16 25 -26 31 -55 31 -20 0 -34 -4 -31 -8 5 -8
-23 -24 -37 -22 -4 1 -5 -7 -3 -18 2 -12 0 -18 -6 -15 -5 4 -12 -1 -15 -9 -3
-9 -10 -13 -15 -10 -5 3 -9 -2 -9 -11 0 -9 -4 -13 -10 -10 -6 4 -10 -6 -10
-24 0 -20 11 -40 34 -64 19 -20 32 -38 28 -41 -3 -3 2 -6 12 -6 9 0 14 -4 11
-10 -3 -5 1 -10 9 -10 9 0 16 -5 16 -10 0 -16 51 -6 65 13 6 9 15 14 18 10 4
-3 7 2 7 13 0 16 2 17 10 4 8 -13 10 -13 10 2 0 9 7 21 15 25 8 5 26 24 40 43
14 19 25 28 25 21 0 -9 5 -8 16 3 19 19 26 20 43 4 8 -7 11 -8 8 -2 -3 6 0 11
8 11 8 0 12 -4 10 -8 -3 -3 5 -9 16 -12 14 -4 20 -11 16 -21 -4 -10 -1 -13 8
-9 9 3 18 -4 24 -18 5 -13 10 -20 10 -16 1 13 31 -20 31 -34 0 -7 3 -9 6 -6 4
4 15 -2 24 -13 11 -13 26 -19 41 -16 13 3 27 5 32 5 4 1 6 7 5 14 -2 6 5 11
14 11 10 -1 16 1 15 5 -1 4 14 23 34 43 33 33 38 48 30 90 0 4 -10 10 -22 13
-12 4 -18 12 -15 21 3 8 0 13 -7 11 -7 -1 -11 3 -10 10 2 7 -4 10 -12 7 -9 -4
-15 0 -15 10 0 9 -7 16 -15 16 -7 0 -19 8 -24 18 -6 9 -11 12 -11 5 0 -7 -6
-10 -14 -7 -8 3 -24 -8 -38 -26 -26 -34 -64 -46 -82 -27 -16 16 -9 37 22 65
14 12 22 22 18 22 -4 0 0 7 8 16 18 17 21 44 6 44 -5 0 -10 7 -10 15 0 8 -7
15 -16 15 -8 0 -13 4 -9 9 3 5 -4 13 -16 16 -12 4 -18 12 -15 21 3 8 0 13 -7
11 -7 -1 -11 3 -10 10 2 7 -4 10 -12 7 -8 -4 -15 -1 -15 5 0 7 -14 11 -34 9
-22 -1 -32 -6 -29 -14z"/>
<path d="M269 219 c-29 -32 -56 -56 -60 -53 -4 2 -4 -8 0 -23 4 -16 6 -34 3
-42 -3 -8 0 -11 6 -7 6 3 19 -5 30 -19 11 -14 23 -25 26 -25 4 0 17 -10 29
-21 12 -12 16 -18 8 -14 -9 5 -12 4 -8 -2 3 -5 24 -10 46 -10 22 0 39 3 37 6
-7 11 23 43 34 36 6 -3 9 -3 8 2 -4 10 44 59 55 55 4 -1 3 7 -4 19 -8 15 -8
19 0 15 6 -4 11 0 11 8 0 9 -4 16 -10 16 -5 0 -10 5 -10 11 0 15 -26 39 -34
32 -3 -4 -6 1 -6 10 0 10 -7 17 -15 17 -8 0 -14 6 -12 13 1 6 -4 11 -10 10 -7
-2 -13 3 -13 10 0 8 -12 13 -29 13 -23 0 -41 -12 -82 -57z"/>
</g>
</svg>
